<?xml version="1.0" encoding="UTF-8" ?>
<svg version="1.1" width="32" height="32" xmlns="http://www.w3.org/2000/svg" shape-rendering="crispEdges">
<rect x="12" y="0" width="2" height="2" fill="#124E89" />
<rect x="14" y="0" width="2" height="2" fill="#124E89" />
<rect x="16" y="0" width="2" height="2" fill="#124E89" />
<rect x="18" y="0" width="2" height="2" fill="#124E89" />
<rect x="10" y="2" width="2" height="2" fill="#124E89" />
<rect x="12" y="2" width="2" height="2" fill="#124E89" />
<rect x="14" y="2" width="2" height="2" fill="#0099DB" />
<rect x="16" y="2" width="2" height="2" fill="#0099DB" />
<rect x="18" y="2" width="2" height="2" fill="#0099DB" />
<rect x="20" y="2" width="2" height="2" fill="#124E89" />
<rect x="8" y="4" width="2" height="2" fill="#124E89" />
<rect x="10" y="4" width="2" height="2" fill="#124E89" />
<rect x="12" y="4" width="2" height="2" fill="#124E89" />
<rect x="14" y="4" width="2" height="2" fill="#0099DB" />
<rect x="16" y="4" width="2" height="2" fill="#0099DB" />
<rect x="18" y="4" width="2" height="2" fill="#0099DB" />
<rect x="20" y="4" width="2" height="2" fill="#0099DB" />
<rect x="22" y="4" width="2" height="2" fill="#124E89" />
<rect x="8" y="6" width="2" height="2" fill="#262B44" />
<rect x="10" y="6" width="2" height="2" fill="#124E89" />
<rect x="12" y="6" width="2" height="2" fill="#124E89" />
<rect x="14" y="6" width="2" height="2" fill="#124E89" />
<rect x="16" y="6" width="2" height="2" fill="#0099DB" />
<rect x="18" y="6" width="2" height="2" fill="#0099DB" />
<rect x="20" y="6" width="2" height="2" fill="#124E89" />
<rect x="22" y="6" width="2" height="2" fill="#124E89" />
<rect x="8" y="8" width="2" height="2" fill="#262B44" />
<rect x="10" y="8" width="2" height="2" fill="#124E89" />
<rect x="12" y="8" width="2" height="2" fill="#124E89" />
<rect x="14" y="8" width="2" height="2" fill="#124E89" />
<rect x="16" y="8" width="2" height="2" fill="#124E89" />
<rect x="18" y="8" width="2" height="2" fill="#124E89" />
<rect x="20" y="8" width="2" height="2" fill="#124E89" />
<rect x="22" y="8" width="2" height="2" fill="#124E89" />
<rect x="8" y="10" width="2" height="2" fill="#3A4466" />
<rect x="10" y="10" width="2" height="2" fill="#262B44" />
<rect x="12" y="10" width="2" height="2" fill="#262B44" />
<rect x="14" y="10" width="2" height="2" fill="#124E89" />
<rect x="16" y="10" width="2" height="2" fill="#124E89" />
<rect x="18" y="10" width="2" height="2" fill="#124E89" />
<rect x="20" y="10" width="2" height="2" fill="#124E89" />
<rect x="22" y="10" width="2" height="2" fill="#262B44" />
<rect x="8" y="12" width="2" height="2" fill="#3A4466" />
<rect x="10" y="12" width="2" height="2" fill="#3A4466" />
<rect x="12" y="12" width="2" height="2" fill="#262B44" />
<rect x="14" y="12" width="2" height="2" fill="#262B44" />
<rect x="16" y="12" width="2" height="2" fill="#262B44" />
<rect x="18" y="12" width="2" height="2" fill="#262B44" />
<rect x="20" y="12" width="2" height="2" fill="#262B44" />
<rect x="22" y="12" width="2" height="2" fill="#3A4466" />
<rect x="8" y="14" width="2" height="2" fill="#3A4466" />
<rect x="10" y="14" width="2" height="2" fill="#3A4466" />
<rect x="12" y="14" width="2" height="2" fill="#3A4466" />
<rect x="14" y="14" width="2" height="2" fill="#3A4466" />
<rect x="16" y="14" width="2" height="2" fill="#3A4466" />
<rect x="18" y="14" width="2" height="2" fill="#8B9BB4" />
<rect x="20" y="14" width="2" height="2" fill="#C0CBDC" />
<rect x="22" y="14" width="2" height="2" fill="#3A4466" />
<rect x="8" y="16" width="2" height="2" fill="#262B44" />
<rect x="10" y="16" width="2" height="2" fill="#E4A672" />
<rect x="12" y="16" width="2" height="2" fill="#3A4466" />
<rect x="14" y="16" width="2" height="2" fill="#3A4466" />
<rect x="16" y="16" width="2" height="2" fill="#3A4466" />
<rect x="18" y="16" width="2" height="2" fill="#C0CBDC" />
<rect x="20" y="16" width="2" height="2" fill="#8B9BB4" />
<rect x="22" y="16" width="2" height="2" fill="#262B44" />
<rect x="24" y="16" width="2" height="2" fill="#E4A672" />
<rect x="8" y="18" width="2" height="2" fill="#262B44" />
<rect x="10" y="18" width="2" height="2" fill="#E4A672" />
<rect x="12" y="18" width="2" height="2" fill="#3A4466" />
<rect x="14" y="18" width="2" height="2" fill="#3A4466" />
<rect x="16" y="18" width="2" height="2" fill="#3A4466" />
<rect x="18" y="18" width="2" height="2" fill="#3A4466" />
<rect x="20" y="18" width="2" height="2" fill="#3A4466" />
<rect x="22" y="18" width="2" height="2" fill="#262B44" />
<rect x="24" y="18" width="2" height="2" fill="#E4A672" />
<rect x="8" y="20" width="2" height="2" fill="#262B44" />
<rect x="10" y="20" width="2" height="2" fill="#262B44" />
<rect x="12" y="20" width="2" height="2" fill="#3A4466" />
<rect x="14" y="20" width="2" height="2" fill="#3A4466" />
<rect x="16" y="20" width="2" height="2" fill="#3A4466" />
<rect x="18" y="20" width="2" height="2" fill="#3A4466" />
<rect x="20" y="20" width="2" height="2" fill="#3A4466" />
<rect x="22" y="20" width="2" height="2" fill="#262B44" />
<rect x="8" y="22" width="2" height="2" fill="#262B44" />
<rect x="10" y="22" width="2" height="2" fill="#3A4466" />
<rect x="12" y="22" width="2" height="2" fill="#3A4466" />
<rect x="14" y="22" width="2" height="2" fill="#3A4466" />
<rect x="16" y="22" width="2" height="2" fill="#3A4466" />
<rect x="18" y="22" width="2" height="2" fill="#3A4466" />
<rect x="20" y="22" width="2" height="2" fill="#3A4466" />
<rect x="22" y="22" width="2" height="2" fill="#3A4466" />
<rect x="8" y="24" width="2" height="2" fill="#3A4466" />
<rect x="10" y="24" width="2" height="2" fill="#3A4466" />
<rect x="12" y="24" width="2" height="2" fill="#262B44" />
<rect x="14" y="24" width="2" height="2" fill="#262B44" />
<rect x="16" y="24" width="2" height="2" fill="#262B44" />
<rect x="18" y="24" width="2" height="2" fill="#262B44" />
<rect x="20" y="24" width="2" height="2" fill="#262B44" />
<rect x="22" y="24" width="2" height="2" fill="#3A4466" />
<rect x="8" y="26" width="2" height="2" fill="#262B44" />
<rect x="10" y="26" width="2" height="2" fill="#262B44" />
<rect x="12" y="26" width="2" height="2" fill="#262B44" />
<rect x="14" y="26" width="2" height="2" fill="#262B44" />
<rect x="16" y="26" width="2" height="2" fill="#262B44" />
<rect x="18" y="26" width="2" height="2" fill="#262B44" />
<rect x="20" y="26" width="2" height="2" fill="#262B44" />
<rect x="22" y="26" width="2" height="2" fill="#262B44" />
<rect x="6" y="28" width="2" height="2" fill="#000000" opacity="0.400000" />
<rect x="8" y="28" width="2" height="2" fill="#181425" />
<rect x="10" y="28" width="2" height="2" fill="#181425" />
<rect x="12" y="28" width="2" height="2" fill="#000000" opacity="0.400000" />
<rect x="14" y="28" width="2" height="2" fill="#000000" opacity="0.400000" />
<rect x="16" y="28" width="2" height="2" fill="#000000" opacity="0.400000" />
<rect x="18" y="28" width="2" height="2" fill="#000000" opacity="0.400000" />
<rect x="20" y="28" width="2" height="2" fill="#181425" />
<rect x="22" y="28" width="2" height="2" fill="#181425" />
<rect x="24" y="28" width="2" height="2" fill="#000000" opacity="0.400000" />
<rect x="8" y="30" width="2" height="2" fill="#000000" opacity="0.400000" />
<rect x="10" y="30" width="2" height="2" fill="#000000" opacity="0.400000" />
<rect x="12" y="30" width="2" height="2" fill="#000000" opacity="0.400000" />
<rect x="14" y="30" width="2" height="2" fill="#000000" opacity="0.400000" />
<rect x="16" y="30" width="2" height="2" fill="#000000" opacity="0.400000" />
<rect x="18" y="30" width="2" height="2" fill="#000000" opacity="0.400000" />
<rect x="20" y="30" width="2" height="2" fill="#000000" opacity="0.400000" />
<rect x="22" y="30" width="2" height="2" fill="#000000" opacity="0.400000" />
</svg>